# xmcd
#
# Track frame offsets:
#	150
#	13330
#	27085
#	41790
#	55050
#	66292
#	84112
#	95152
#	108427
#	121692
#	133110
#	146905
#	160390
#	171530
#	179382
#
# Disc length: 2518 seconds
#
# Revision: 1
# Processed by: cddbd v1.5.1PL0 Copyright (c) Steve Scherf et al.
# Submitted via: audiograbber 1.83.01
#
DISCID=d609d40f
DTITLE=Snooks Eaglin - The sonet blues story
DYEAR=2005
DGENRE=Blues
TTITLE0=Boogie children
TTITLE1=Who´s loving you tonight
TTITLE2=Lucille
TTITLE3=Drive it home
TTITLE4=Good news
TTITLE5=Funky malaguena
TTITLE6=Pine top´s boogie-woogie
TTITLE7=That same old train
TTITLE8=I get the blues when it rains
TTITLE9=Young boys blues
TTITLE10=Tomorrow night
TTITLE11=Little girl of mine
TTITLE12=Shake a hand - Bonus track
TTITLE13=Shake, rattle and roll - Bonus track
TTITLE14=Win your love for me - Bonus track
EXTD=
EXTT0=
EXTT1=
EXTT2=
EXTT3=
EXTT4=
EXTT5=
EXTT6=
EXTT7=
EXTT8=
EXTT9=
EXTT10=
EXTT11=
EXTT12=
EXTT13=
EXTT14=
PLAYORDER=
